<svg xmlns="http://www.w3.org/2000/svg" viewBox="0 0 366.66 338.61"><defs><style>.cls-1{fill:#4d4d4d;}</style></defs><title>more</title><g id="Layer_2" data-name="Layer 2"><g id="Layer_1-2" data-name="Layer 1"><path class="cls-1" d="M94.9,108.43A60.9,60.9,0,1,1,34,169.33a61,61,0,0,1,60.9-60.9m0-34a94.9,94.9,0,1,0,94.9,94.9,94.9,94.9,0,0,0-94.9-94.9Z"/><path class="cls-1" d="M184.78,30.64l51,51,81.63,81.63L336,181.91V156.46l-51.12,51.12-81.58,81.58L184.5,308c-6.67,6.67-7.16,18.88,0,25.46s18.34,7.11,25.46,0l51.12-51.12,81.58-81.58,18.86-18.86a18.27,18.27,0,0,0,0-25.46l-51-51L228.92,23.87,210.23,5.19c-6.67-6.67-18.88-7.16-25.46,0s-7.11,18.34,0,25.46Z"/></g></g></svg>